<svg width="100" height="100" viewBox="0 0 100 100" fill="none" xmlns="http://www.w3.org/2000/svg">
<path d="M8.54528 74.0187H23.8179V36.9277L2 20.5645V67.4734C2 71.095 4.93472 74.0187 8.54528 74.0187Z" fill="white"/>
<path d="M76.1816 74.0187H91.4548C95.0764 74.0187 98 71.0845 98 67.4734V20.5645L76.1816 36.9277" fill="white"/>
<path d="M76.1816 8.56437V36.9281L98 20.5649V11.8365C98 3.74229 88.76 -0.872433 82.2911 3.98229" fill="white"/>
<path d="M23.8184 36.9281V8.56493L50 28.2013L76.1816 8.56445V36.9281L50 56.5649" fill="white"/>
<path d="M2 11.8375V20.5644L23.8179 36.928V8.56485L17.709 3.98277C11.229 -0.871955 2 3.74277 2 11.8375Z" fill="white"/>
</svg>
