<svg width="100" height="100" viewBox="0 0 100 100" fill="none" xmlns="http://www.w3.org/2000/svg">
<path fill-rule="evenodd" clip-rule="evenodd" d="M98 50C98 76.5097 76.5097 98 50 98C23.4903 98 2 76.5097 2 50C2 23.4903 23.4903 2 50 2C76.5097 2 98 23.4903 98 50ZM50.0005 81.2518C67.2604 81.2518 81.2523 67.2599 81.2523 50C81.2523 32.7402 67.2604 18.7482 50.0005 18.7482C32.7406 18.7482 18.7487 32.7402 18.7487 50C18.7487 67.2599 32.7406 81.2518 50.0005 81.2518ZM25.3954 49.8269H37.6544C37.7695 51.9851 38.5177 55.5247 41.2803 58.8916C43.3671 61.4349 47.5825 62.3448 49.9997 62.3448V74.3448C46.8343 74.4024 39.2947 74.0028 32.3019 66.7477C26.7767 61.0153 25.6832 53.3376 25.3954 49.8269Z" fill="white"/>
</svg>
