<svg width="100" height="100" viewBox="0 0 100 100" fill="none" xmlns="http://www.w3.org/2000/svg">
<path d="M21.6605 62.9025C21.6605 68.5938 17.0606 73.1937 11.3693 73.1937C5.67797 73.1937 1.07812 68.5938 1.07812 62.9025C1.07812 57.2112 5.67797 52.6113 11.3693 52.6113H21.6605V62.9025ZM26.806 62.9025C26.806 57.2112 31.4059 52.6113 37.0972 52.6113C42.7885 52.6113 47.3884 57.2112 47.3884 62.9025V88.6304C47.3884 94.3217 42.7885 98.9216 37.0972 98.9216C31.4059 98.9216 26.806 94.3217 26.806 88.6304V62.9025Z" fill="white"/>
<path d="M37.097 21.5823C31.4057 21.5823 26.8059 16.9825 26.8059 11.2912C26.8059 5.59984 31.4057 1 37.097 1C42.7884 1 47.3882 5.59984 47.3882 11.2912V21.5823H37.097ZM37.097 26.8059C42.7884 26.8059 47.3882 31.4057 47.3882 37.097C47.3882 42.7884 42.7884 47.3882 37.097 47.3882H11.2912C5.59984 47.3882 1 42.7884 1 37.097C1 31.4057 5.59984 26.8059 11.2912 26.8059H37.097Z" fill="white"/>
<path d="M78.3402 37.097C78.3402 31.4057 82.9401 26.8059 88.6314 26.8059C94.3227 26.8059 98.9226 31.4057 98.9226 37.097C98.9226 42.7884 94.3227 47.3882 88.6314 47.3882H78.3402V37.097ZM73.1946 37.097C73.1946 42.7884 68.5948 47.3882 62.9035 47.3882C57.2121 47.3882 52.6123 42.7884 52.6123 37.097V11.2912C52.6123 5.59984 57.2121 1 62.9035 1C68.5948 1 73.1946 5.59984 73.1946 11.2912V37.097Z" fill="white"/>
<path d="M62.9035 78.3393C68.5948 78.3393 73.1946 82.9391 73.1946 88.6304C73.1946 94.3217 68.5948 98.9216 62.9035 98.9216C57.2121 98.9216 52.6123 94.3217 52.6123 88.6304V78.3393H62.9035ZM62.9035 73.1937C57.2121 73.1937 52.6123 68.5938 52.6123 62.9025C52.6123 57.2112 57.2121 52.6113 62.9035 52.6113H88.7094C94.4007 52.6113 99.0005 57.2112 99.0005 62.9025C99.0005 68.5938 94.4007 73.1937 88.7094 73.1937H62.9035Z" fill="white"/>
</svg>
